<?xml version="1.0" encoding="UTF-8" standalone="no"?>
<!-- Created with Inkscape (http://www.inkscape.org/) -->

<svg
   version="1.1"
   id="svg1"
   width="800"
   height="350"
   viewBox="0 0 800 350"
   sodipodi:docname="webLogo.png"
   xmlns:inkscape="http://www.inkscape.org/namespaces/inkscape"
   xmlns:sodipodi="http://sodipodi.sourceforge.net/DTD/sodipodi-0.dtd"
   xmlns="http://www.w3.org/2000/svg"
   xmlns:svg="http://www.w3.org/2000/svg">
  <defs
     id="defs1" />
  <sodipodi:namedview
     id="namedview1"
     pagecolor="#ffffff"
     bordercolor="#000000"
     borderopacity="0.25"
     inkscape:showpageshadow="2"
     inkscape:pageopacity="0.0"
     inkscape:pagecheckerboard="0"
     inkscape:deskcolor="#d1d1d1" />
  <g
     inkscape:groupmode="layer"
     inkscape:label="Image"
     id="g1">
    <path
       style="fill:#ffffff;stroke-width:0.977592"
       d="m 57.628097,349.24294 c -1.161048,-1.08996 -0.571494,-3.62248 2.483835,-10.66924 3.636912,-8.38784 4.073301,-8.90083 6.247276,-7.34406 1.88288,1.34829 8.06114,16.62825 7.232354,17.88701 -0.886198,1.34601 -2.893184,0.94138 -4.597271,-0.92681 -1.132795,-1.24192 -2.515719,-1.62309 -4.764662,-1.31324 -1.742832,0.24011 -3.168639,0.76881 -3.168639,1.17489 0,0.98303 -2.66838,1.90913 -3.432893,1.19145 z m 9.335598,-7.82775 c -1.2455,-3.35385 -2.418151,-3.63945 -3.213943,-0.78279 -0.724153,2.59944 -0.05549,3.62427 2.363262,3.62427 1.679467,0 1.780568,-0.33753 0.850681,-2.84148 z m 23.257167,6.53541 c -2.748293,-2.57982 -1.036841,-4.81656 2.223112,-2.90546 3.532077,2.07068 4.940731,-0.0774 4.940731,-7.53457 0,-5.76001 0.221071,-6.51416 1.910022,-6.51416 2.277803,0 3.136853,1.77646 3.129293,6.47081 -0.0101,5.95668 -1.86987,10.57411 -4.661245,11.57037 -3.731253,1.33168 -5.189247,1.12154 -7.541913,-1.08699 z m 22.516668,0.57477 c -4.23645,-1.74241 -6.31013,-6.06111 -5.17956,-10.78668 1.8288,-7.64402 11.33885,-10.37316 17.14712,-4.92082 8.11481,7.61762 -1.36981,20.06631 -11.96756,15.7075 z m 8.28635,-4.80993 c 3.44601,-3.23478 0.75816,-9.87755 -3.99672,-9.87755 -4.20467,0 -6.62161,5.3795 -4.06351,9.04441 1.86865,2.67716 5.67659,3.07075 8.06023,0.83314 z m 14.61505,5.01013 c -2.88592,-2.07996 -3.94849,-5.19532 -3.94849,-11.57622 0,-5.9757 0.11159,-6.26981 2.27023,-5.98203 2.08488,0.27797 2.29445,0.86694 2.56758,7.21559 0.22743,5.28549 0.67754,7.04982 1.91174,7.4944 2.6926,0.96994 4.34936,-2.42231 4.34936,-8.90538 0,-5.44423 0.18888,-5.97552 2.12474,-5.97552 2.01606,0 2.10586,0.39261 1.75383,7.67008 -0.32308,6.67774 -0.67774,7.90315 -2.74113,9.47161 -2.69522,2.04871 -5.94115,2.27879 -8.28786,0.58747 z m 24.87216,-2.10099 c -1.77906,-1.82329 -3.54298,-3.31507 -3.91974,-3.31507 -0.37685,0 -0.6851,1.27867 -0.6851,2.84149 0,2.16783 -0.45808,2.84148 -1.93192,2.84148 -1.66211,0 -1.97914,-0.83035 -2.27023,-5.94554 -0.18606,-3.27006 -0.11129,-7.42573 0.16618,-9.23483 0.47877,-3.12166 0.7291,-3.30441 4.91198,-3.586 3.45388,-0.23253 4.92741,0.1618 6.81069,1.82263 2.84264,2.50691 3.02617,4.76911 0.68824,8.48437 -1.65828,2.63525 -1.6382,2.80203 0.61023,5.04863 2.22312,2.22147 2.18397,4.3579 -0.0797,4.3579 -0.58612,0 -2.52127,-1.49178 -4.30032,-3.31506 z m -0.14691,-7.67863 c 3.44863,-1.24227 1.24681,-5.10806 -2.90943,-5.10806 -1.3126,0 -2.73861,4.2501 -1.74041,5.18713 0.70407,0.66097 2.68906,0.62721 4.64984,-0.0791 z m 20.78786,5.58889 -5.26381,-5.48756 0.69802,4.9726 c 0.68641,4.88907 0.65423,4.9726 -1.919,4.9726 h -2.61713 v -9.47162 c 0,-7.18789 0.31935,-9.47162 1.32471,-9.47162 1.74999,0 6.05345,4.38159 8.37241,8.52446 l 1.85554,3.31507 0.92918,-5.96262 c 0.73111,-4.69179 1.27415,-5.90026 2.5478,-5.67001 1.35559,0.24507 1.61873,1.817 1.61873,9.67234 0,6.13586 -0.39472,9.50322 -1.14127,9.73683 -0.62769,0.1964 -3.50998,-2.11231 -6.40518,-5.13047 z m 13.07088,2.97524 c -1.08789,-2.68611 -1.29938,-11.99757 -0.3481,-15.32972 0.54355,-1.90384 1.24147,-2.13112 6.54473,-2.13112 5.26361,0 5.9363,0.21466 5.9363,1.89433 0,1.5786 -0.67269,1.89432 -4.03597,1.89432 -3.36337,0 -4.03596,0.31572 -4.03596,1.89433 0,1.47336 0.67259,1.89432 3.02697,1.89432 2.35428,0 3.02698,0.42096 3.02698,1.89432 0,1.47337 -0.6727,1.89433 -3.02698,1.89433 -2.55618,0 -3.02697,0.36834 -3.02697,2.3679 0,2.13112 0.40359,2.36791 4.03596,2.36791 3.36328,0 4.03597,0.31571 4.03597,1.89432 0,1.66574 -0.67269,1.89432 -5.57448,1.89432 -5.05535,0 -5.66609,-0.22622 -6.55845,-2.42956 z m 51.14723,1.79812 c -0.3699,-0.34729 -0.6726,-4.82263 -0.6726,-9.9452 v -9.31376 h 6.05395 c 5.38126,0 6.05396,0.21048 6.05396,1.89433 0,1.5786 -0.6727,1.89432 -4.03597,1.89432 -3.36338,0 -4.03597,0.31572 -4.03597,1.89433 0,1.45544 0.67259,1.89432 2.90337,1.89432 2.90802,0 5.73481,1.99417 4.48709,3.16542 -0.36515,0.34277 -1.89741,0.62323 -3.40504,0.62323 -2.83678,0 -3.94183,1.77884 -3.9717,6.39334 -0.0131,2.01996 -1.92051,2.86701 -3.37709,1.49967 z m 22.992,-2.92041 -3.47517,-3.55186 -0.0101,3.07828 c 0,2.44532 -0.41974,3.07827 -2.02283,3.07827 -1.88338,0 -2.01798,-0.63144 -2.01798,-9.47162 v -9.47162 h 5.04496 c 3.69967,0 5.58315,0.50515 7.06294,1.89433 2.38173,2.23578 2.64467,6.85376 0.5045,8.86272 -2.06006,1.9339 -1.90044,3.77518 0.50449,5.81829 2.5806,2.19223 2.56315,3.31506 -0.0514,3.31506 -1.13815,0 -3.63328,-1.59833 -5.54462,-3.55185 z m 1.45406,-8.16762 c 1.68522,-1.90615 0.25891,-4.38228 -2.5243,-4.38228 -2.01021,0 -2.41452,0.47588 -2.41452,2.84149 0,2.14827 0.46212,2.84148 1.89439,2.84148 1.04198,0 2.41189,-0.58531 3.04443,-1.30069 z m 99.49186,10.62012 c -3.68342,-1.90148 -5.50385,-4.91705 -5.52705,-9.15549 -0.0323,-5.83277 4.05604,-9.63556 10.35831,-9.63556 6.59336,0 9.79913,2.67164 9.79913,8.16666 0,5.57244 -2.19829,9.37291 -6.17392,10.67389 -3.96968,1.29905 -5.86568,1.28796 -8.45647,-0.0495 z m 9.14127,-5.95799 c 2.49847,-3.57937 -0.30139,-9.04441 -4.63359,-9.04441 -2.26781,0 -6.02116,3.52249 -6.02116,5.65083 0,5.32799 7.61224,7.75253 10.65475,3.39358 z m 28.57395,3.5262 -4.11275,-3.48794 0.35163,2.79916 c 0.28928,2.30346 -0.0505,2.85278 -1.9186,3.10185 -1.34357,0.17911 -2.30373,-0.20752 -2.35226,-0.94717 -0.51005,-7.76988 -0.30734,-15.68967 0.42579,-16.6412 0.98983,-1.28455 8.49481,-1.60072 10.43974,-0.43981 2.65204,1.58296 3.43713,5.88585 1.70066,9.32092 -1.58967,3.14474 -1.56979,3.36235 0.49733,5.4278 2.56133,2.55934 2.64437,3.07082 0.6173,3.80102 -0.93311,0.33611 -3.15047,-0.81588 -5.64884,-2.93463 z m 0.59753,-8.17141 c 2.51319,-1.72508 1.32339,-4.3992 -1.95745,-4.3992 -2.1652,0 -2.55406,0.43262 -2.55406,2.84149 0,3.11139 1.49563,3.62781 4.51151,1.55771 z m 35.41572,10.21415 c -1.15368,-1.08296 -1.58553,-3.38387 -1.58553,-8.44698 0,-9.57233 0.23933,-9.95502 6.2282,-9.95502 6.04407,0 8.39916,1.06714 10.40967,4.71685 3.19215,5.79469 1.11393,11.40229 -5.13395,13.85286 -4.41676,1.73236 -7.95812,1.67248 -9.91839,-0.16771 z m 10.27013,-4.42646 c 1.77754,-1.33504 1.56928,-6.92086 -0.3244,-8.69849 -0.87207,-0.81862 -2.68825,-1.4884 -4.03596,-1.4884 -2.31453,0 -2.45034,0.30644 -2.45034,5.52511 0,3.03882 0.30764,5.81395 0.68369,6.16697 0.78853,0.7402 4.27894,-0.11728 6.12701,-1.50519 z m 20.16299,2.3788 -3.76687,-3.53608 v 3.12837 c 0,2.70247 -0.30916,3.08716 -2.27024,2.8257 -2.17246,-0.28963 -2.27023,-0.69053 -2.27023,-9.30071 v -8.99803 l 4.89957,-0.29279 c 3.54287,-0.21171 5.42878,0.15678 6.81069,1.33075 2.19436,1.86422 2.55296,7.0209 0.6836,9.83079 -1.02383,1.53899 -0.86542,2.30464 0.95491,4.6159 2.12998,2.70435 2.07852,3.93216 -0.16467,3.93216 -0.61044,0 -2.805,-1.59123 -4.87676,-3.53606 z m 0.11603,-7.72109 c 2.2554,-1.34168 0.9533,-4.37102 -1.87874,-4.37102 -1.98671,0 -2.57515,0.54199 -2.82801,2.6047 -0.24508,1.99939 0.10665,2.60132 1.51349,2.59019 1.00809,-0.008 2.44499,-0.37872 3.19326,-0.82387 z m 13.7009,9.99824 c -0.28302,-0.6924 -0.3823,-5.06119 -0.22056,-9.70841 l 0.29412,-8.44949 6.3062,-0.28199 c 5.78031,-0.25847 6.3062,-0.12025 6.3062,1.65753 0,1.63133 -0.64132,1.93952 -4.03597,1.93952 -3.36337,0 -4.03597,0.31572 -4.03597,1.89433 0,1.5409 0.6726,1.89432 3.60543,1.89432 2.88855,0 3.53894,0.32959 3.27095,1.65753 -0.22026,1.09165 -1.45123,1.75886 -3.60543,1.95434 -2.70722,0.24564 -3.27095,0.69459 -3.27095,2.60469 0,2.10384 0.40138,2.3079 4.54047,2.3079 4.64792,0 5.46308,0.64931 3.32967,2.65205 -1.6949,1.59098 -11.82428,1.49173 -12.48416,-0.12232 z m 32.1591,-0.59939 c -0.45485,-1.63295 -1.10505,-1.79268 -5.20377,-1.27836 -2.57616,0.32327 -4.8353,0.94815 -5.02034,1.38863 -0.65353,1.55631 -3.19508,0.77623 -3.19508,-0.98068 0,-2.50749 4.89644,-14.5206 6.5758,-16.13316 1.95684,-1.87907 3.87302,-0.1731 5.48115,4.87998 0.7066,2.22019 2.14219,5.61805 3.19033,7.55082 2.32149,4.28123 2.36407,5.11607 0.29867,5.86007 -1.06681,0.38427 -1.78158,-0.0484 -2.12676,-1.2873 z m -3.32927,-5.30768 c 0,-0.81565 -0.50288,-2.36501 -1.11746,-3.44303 -0.89628,-1.57208 -1.29262,-1.70036 -2.00254,-0.6481 -1.67533,2.48328 -1.06429,5.57414 1.10202,5.57414 1.15872,0 2.01798,-0.63144 2.01798,-1.48301 z m 45.03616,5.20291 c -2.58221,-1.90671 -3.60624,-4.66706 -1.73133,-4.66706 0.50995,0 2.24975,0.71248 3.86606,1.5833 3.34127,1.8001 6.30741,1.18035 6.30206,-1.31679 0,-1.10142 -1.84161,-2.50941 -5.29721,-4.05516 -5.75065,-2.57233 -6.98777,-4.77337 -4.26844,-7.59408 2.51158,-2.60517 6.87245,-3.20285 10.50462,-1.4397 4.5562,2.21173 3.88331,3.55963 -1.5935,3.19217 -5.87284,-0.39402 -7.07384,1.52899 -1.80751,2.89399 7.52103,1.94941 9.67855,6.68161 5.03396,11.04155 -3.0637,2.87599 -7.41034,3.01883 -11.00871,0.36178 z m 38.37379,1.33163 c -0.3699,-0.34729 -0.6726,-3.29599 -0.6726,-6.55267 0,-7.3359 -0.61578,-8.91764 -3.47133,-8.91764 -2.76293,0 -3.61946,-0.72427 -2.90973,-2.46051 0.40611,-0.99343 2.67715,-1.32814 9.0114,-1.32814 7.79588,0 8.46858,0.15047 8.46858,1.89433 0,1.47337 -0.6727,1.89432 -3.02698,1.89432 -2.84062,0 -3.02698,0.22517 -3.02698,3.65645 0,9.35615 -1.80246,14.22626 -4.37236,11.81386 z m 19.93193,-0.70121 c -3.92498,-1.61867 -6.7102,-6.81569 -5.84045,-10.89801 0.34699,-1.62856 1.96935,-4.01823 3.60523,-5.31038 8.54939,-6.75302 20.81954,1.69312 16.51367,11.36715 -2.19466,4.93048 -8.7074,7.13871 -14.27845,4.84124 z m 8.19756,-4.78085 c 2.86331,-2.68786 3.1195,-4.91658 0.90597,-7.88317 -3.05967,-4.10055 -10.53721,-1.66873 -10.53721,3.42686 0,2.60834 3.55125,6.78117 5.77113,6.78117 0.76099,0 2.49797,-1.04619 3.86011,-2.32486 z m 31.39287,2.56165 -3.84235,-3.55186 0.32773,2.84149 c 0.26425,2.29138 -0.0858,2.89682 -1.806,3.12734 -1.68683,0.22602 -2.26791,-0.34419 -2.77473,-2.72309 -1.05793,-4.9657 -0.72466,-13.68078 0.56978,-14.89583 0.66593,-0.62513 3.36438,-1.1366 5.99674,-1.1366 3.80178,0 5.10883,0.43286 6.35665,2.10508 1.99629,2.67556 2.02757,7.72582 0.0575,9.26087 -2.01254,1.56789 -1.91033,2.46901 0.54122,4.77035 2.06904,1.94225 1.89267,3.7541 -0.36536,3.7541 -0.67017,0 -2.94757,-1.59833 -5.0609,-3.55185 z m 1.85806,-9.81691 c 0,-1.77527 -0.53759,-2.25941 -2.50866,-2.25941 -2.57535,0 -3.75012,2.10821 -2.66031,4.77404 0.9197,2.25 5.16897,0.18282 5.16897,-2.51463 z m 10.30211,12.77864 c -0.39421,-0.37001 -0.71669,-4.88429 -0.71669,-10.03171 v -9.35895 l 6.3062,0.28198 c 4.79927,0.2146 6.3062,0.62147 6.3062,1.70273 0,0.96233 -1.24076,1.51671 -3.84547,1.71816 -3.30233,0.25542 -3.80107,0.58983 -3.53147,2.3679 0.25265,1.66627 0.87328,2.00887 3.17883,1.75482 4.14423,-0.45663 3.23664,2.80182 -1.10606,3.97096 -2.1774,0.5862 -3.27226,1.46898 -3.27226,2.63828 0,1.45546 0.79256,1.75731 4.61442,1.75731 3.85001,0 4.55873,0.27457 4.27843,1.65753 -0.26314,1.29801 -1.54638,1.71786 -5.91582,1.93565 -3.06885,0.15296 -5.9022,-0.0246 -6.29631,-0.39466 z m 16.43618,0.17967 c 0,-1.67329 6.42465,-18.63605 7.23689,-19.10728 1.66181,-0.96417 3.55529,1.53311 6.89868,9.09895 1.72659,3.90705 3.38598,7.63291 3.68746,8.27968 1.04139,2.23402 -2.85423,2.54946 -4.60332,0.37276 -1.36678,-1.70093 -2.27185,-1.95003 -5.16816,-1.42241 -1.93111,0.3518 -3.87423,1.21318 -4.31798,1.9142 -0.73132,1.15507 -3.73357,1.84994 -3.73357,0.8641 z m 10.08992,-5.68444 c 0,-0.22656 -0.48018,-1.59734 -1.06701,-3.04618 -0.85411,-2.10895 -1.25347,-2.35734 -2.00245,-1.24562 -1.62609,2.4134 -1.11413,4.70372 1.05147,4.70372 1.10989,0 2.01799,-0.18537 2.01799,-0.41192 z m 12.19064,4.76782 c -0.75079,-0.84931 -1.06782,-4.34075 -0.88024,-9.69776 0.24811,-7.08955 0.56321,-8.41917 2.05874,-8.68757 1.56212,-0.28036 1.76574,0.55313 1.76574,7.22852 0,8.19581 0.35244,8.69524 6.13639,8.69524 3.18942,0 4.11911,2.21569 1.34851,3.21373 -2.91588,1.05033 -9.23873,0.59432 -10.42914,-0.75216 z m 16.18403,0.11647 c -1.75554,-1.64799 -1.47656,-16.28504 0.33741,-17.6982 2.74284,-2.13688 3.57566,-0.0598 3.57566,8.91817 0,6.63732 -0.34658,8.96564 -1.39059,9.3417 -0.76481,0.2755 -1.89993,0.0227 -2.52248,-0.56167 z m 37.46206,0.51857 c -0.72314,-0.23676 -1.26124,-2.01604 -1.26124,-4.16974 0,-3.97029 -1.84454,-8.1925 -4.47397,-10.24099 -0.86905,-0.67701 -1.57998,-2.0312 -1.57998,-3.00928 0,-2.80649 3.29607,-2.0523 5.54945,1.26975 2.70067,3.98167 3.86989,4.14943 5.23627,0.75133 1.24772,-3.10323 3.89733,-4.6024 5.49063,-3.10673 0.66856,0.62755 -0.0313,2.47912 -2.08579,5.5206 -2.18416,3.23305 -3.09165,5.74326 -3.09165,8.5518 0,3.91297 -1.17356,5.28795 -3.78372,4.43326 z m -546.33592,-4.90154 c -0.32348,-3.16086 -1.37878,-5.8445 -3.16036,-8.03715 -1.47111,-1.81049 -2.67464,-3.95957 -2.67464,-4.77574 0,-2.52882 2.66071,-1.63991 5.48105,1.83113 1.4814,1.82329 3.01366,3.31507 3.40484,3.31507 0.39129,0 1.32965,-1.3113 2.08539,-2.91399 1.54386,-3.27392 3.75527,-4.47828 5.39558,-2.93844 0.78934,0.74088 0.27727,2.03661 -1.82758,4.62478 -2.00679,2.46758 -3.08429,5.08124 -3.43451,8.33136 -0.42206,3.91659 -0.88004,4.78533 -2.64719,5.02206 -1.88127,0.25202 -2.19486,-0.28119 -2.62258,-4.45908 z m 65.76308,2.71427 c -3.23826,-3.03988 -4.16159,-6.28489 -2.97017,-10.43859 1.32097,-4.60489 4.26652,-6.57251 9.83929,-6.57251 9.49502,0 13.66256,10.21247 6.79738,16.65691 -3.22777,3.03 -10.61208,3.22137 -13.6665,0.35419 z m 11.10376,-3.68856 c 2.27891,-3.99725 0,-9.53389 -3.93235,-9.53389 -5.11478,0 -8.11048,6.52262 -4.53653,9.87755 2.24995,2.1121 7.18292,1.91193 8.46888,-0.34366 z m 11.17832,1.18756 c 0.0555,-5.81559 1.41713,-12.47186 2.81963,-13.78841 1.55183,-1.45669 3.45055,0.27211 5.12315,4.66458 0.75644,1.98647 1.94241,4.38459 2.63559,5.32914 1.12109,1.52762 1.52913,1.05669 3.69271,-4.26223 1.79379,-4.40962 2.93021,-5.97959 4.32827,-5.97959 2.24511,0 3.16663,2.67847 4.15231,12.06792 0.68551,6.53079 0.67582,6.5659 -1.71993,6.24792 -2.1545,-0.28595 -2.47142,-0.9209 -2.9964,-6.00274 -0.32298,-3.12563 -0.66352,-5.12265 -0.75675,-4.43781 -0.0928,0.68483 -1.1337,3.34872 -2.3119,5.91976 -2.99731,6.54046 -5.24373,6.31213 -7.59156,-0.77158 l -1.80498,-5.44618 -0.53679,5.20939 c -0.46353,4.49828 -0.84674,5.25071 -2.80701,5.51206 -2.08983,0.2786 -2.2668,-0.0602 -2.22634,-4.26223 z m 45.29123,2.77561 c -0.19928,-4.75072 -1.09233,-7.35293 -3.87816,-11.30116 -1.68653,-2.39005 -2.82346,-4.71432 -2.52672,-5.16504 1.10596,-1.67982 3.25894,-0.72073 5.5876,2.48909 1.32006,1.81973 2.65667,3.31151 2.97007,3.31507 0.31349,0.004 1.32773,-1.48531 2.25398,-3.3086 1.10223,-2.16977 2.38688,-3.31507 3.71834,-3.31507 2.47526,0 2.75919,2.99198 0.45425,4.78764 -2.64517,2.06081 -4.47387,6.27908 -4.47387,10.31992 0,3.20424 -0.33226,3.83568 -2.01799,3.83568 -1.22279,0 -2.04542,-0.65319 -2.0875,-1.65753 z m 38.41122,-7.2846 c 0,-9.03452 0.5269,-10.47875 3.44036,-9.42927 1.27728,0.4601 1.6046,2.0872 1.6046,7.97649 0,8.63251 -0.53154,10.39491 -3.13494,10.39491 -1.7392,0 -1.91002,-0.79991 -1.91002,-8.94213 z m 138.71573,1.71963 c 0.40551,-4.06198 1.1449,-8.39188 1.64314,-9.622 1.32743,-3.27754 4.11467,-2.25683 5.93055,2.17187 0.8525,2.07915 2.16278,4.79921 2.91165,6.04457 1.32067,2.19623 1.42651,2.08231 3.52038,-3.78864 3.73387,-10.46937 6.55047,-8.206 8.17586,6.57006 0.64515,5.86544 0.60963,5.9863 -1.66998,5.68297 -2.03555,-0.27085 -2.39273,-0.96648 -2.83356,-5.5193 l -0.50449,-5.20939 -2.45599,5.44618 c -2.64649,5.86901 -4.57538,6.83569 -6.14214,3.07828 -0.54304,-1.30235 -1.53851,-3.54002 -2.21221,-4.9726 -1.2001,-2.5522 -1.23572,-2.50924 -1.76574,2.13111 -0.46696,4.08837 -0.86854,4.77932 -2.93778,5.05406 l -2.39686,0.31825 z m 212.41351,-0.35479 v -7.5773 h -3.63943 c -2.90418,0 -3.51573,-0.30268 -3.02698,-1.49821 0.33681,-0.82401 0.61246,-1.67646 0.61246,-1.89432 0,-0.21786 3.63237,-0.39612 8.07194,-0.39612 7.39924,0 8.07194,0.15787 8.07194,1.89433 0,1.36658 -0.6727,1.89432 -2.41462,1.89432 -3.0405,0 -3.63934,1.49336 -3.63934,9.07551 0,5.44764 -0.20967,6.07908 -2.01798,6.07908 -1.84989,0 -2.01799,-0.63144 -2.01799,-7.57729 z m -488.35216,-48.19608 -3.53148,-0.58276 v -11.83041 -11.83041 l 4.80119,-0.8234 c 2.64064,-0.45287 6.41467,-0.53926 8.38674,-0.19195 2.95817,0.52093 3.53057,0.99498 3.27075,2.70861 -0.26435,1.744 -1.12401,2.15312 -5.35976,2.55074 -4.27944,0.40171 -5.0939,0.79698 -5.36744,2.6047 -0.29402,1.94328 0.0838,2.13111 4.28822,2.13111 4.24533,0 4.61069,0.18761 4.61069,2.36791 0,1.82033 -0.52508,2.37089 -2.27023,2.38083 -4.26784,0.0243 -6.8107,1.12165 -6.8107,2.93902 0,1.44353 0.75422,1.78386 3.95343,1.78386 2.17438,0 4.67164,0.25871 5.54946,0.57492 1.89398,0.68225 2.14037,4.06062 0.33478,4.5904 -2.96744,0.87065 -8.57996,1.1674 -11.85565,0.62683 z m -37.13091,-1.24577 c -0.79923,-0.7502 -1.21079,-4.78311 -1.21079,-11.86297 0,-10.64255 0.0202,-10.73359 2.58816,-11.65009 6.03115,-2.15254 14.3513,0.31117 17.57231,5.20341 4.03122,6.12299 1.57059,15.69722 -4.66256,18.14203 -4.09509,1.60619 -12.64781,1.70653 -14.28712,0.16762 z m 12.85002,-5.89354 c 0.66603,-0.7534 1.05409,-3.35919 0.88024,-5.91227 -0.26789,-3.93645 -0.70125,-4.74012 -3.14674,-5.83582 -4.6565,-2.0864 -5.74036,-0.99054 -5.74036,5.80395 0,3.31563 0.3027,6.31257 0.67259,6.65986 1.21352,1.13914 6.11742,0.66058 7.33427,-0.71572 z m 52.63165,5.83222 c -3.79543,-1.83234 -4.92711,-4.14745 -2.9394,-6.0133 1.5485,-1.4536 1.92274,-1.41477 5.31123,0.55115 4.28681,2.48702 8.6281,2.03489 8.6281,-0.89858 0,-1.39644 -1.25579,-2.18965 -5.21276,-3.29274 -6.63473,-1.84958 -8.91313,-3.79698 -8.91313,-7.61827 0,-4.64666 3.03939,-6.63014 10.15974,-6.63014 6.39509,0 9.59844,1.72333 8.44557,4.54351 -0.53457,1.30759 -1.61853,1.46872 -6.59558,0.98039 -5.05142,-0.49562 -5.95578,-0.35369 -5.95578,0.93461 0,1.01034 1.74546,2.00559 5.21266,2.97213 6.93561,1.93343 8.91323,3.74706 8.91323,8.17416 0,2.86759 -0.58148,3.96599 -2.93052,5.53618 -3.34511,2.23597 -10.29262,2.61028 -14.12336,0.7609 z m 36.7153,0.0139 c -0.25033,-0.65117 -0.57664,-5.01996 -0.72506,-9.70841 l -0.27001,-8.52445 -3.95716,-0.47359 c -4.11185,-0.49209 -5.16988,-1.50371 -3.7589,-3.59398 1.06469,-1.57731 13.47892,-2.50955 18.81498,-1.41291 3.03121,0.62297 4.03596,1.29049 4.03596,2.68139 0,1.4502 -0.8755,1.95465 -4.03596,2.3255 l -4.03597,0.47359 v 8.52445 c 0,9.21283 -0.55868,10.89236 -3.62269,10.89236 -1.09455,0 -2.19496,-0.53277 -2.44519,-1.18395 z m 26.19959,-3.04922 c -1.45154,-9.08654 0.60176,-21.31118 3.5796,-21.31118 2.6362,0 3.07844,2.09613 2.80712,13.30597 l -0.28464,11.76484 -2.70389,0.29329 c -2.50331,0.27152 -2.75546,-0.0292 -3.39819,-4.05288 z m 20.33583,2.73496 c -0.3368,-0.82397 -0.61235,-5.67832 -0.61235,-10.78738 0,-7.55687 0.34093,-9.68452 1.82829,-11.40881 2.69441,-3.1235 5.05142,-1.81823 10.25106,5.67688 2.48161,3.5771 4.86536,6.2988 5.2972,6.04824 0.43185,-0.25057 0.7853,-3.15527 0.7853,-6.4549 0,-6.18907 1.10505,-7.78199 4.54047,-6.54451 1.22189,0.44016 1.51349,2.60934 1.51349,11.25875 0,12.30136 -0.36324,13.70998 -3.53491,13.70998 -2.4575,0 -6.56339,-3.82767 -10.46869,-9.75936 -1.2677,-1.9255 -2.66616,-3.5009 -3.1077,-3.5009 -0.44143,0 -0.57543,1.89263 -0.29775,4.20586 0.73908,6.15483 -0.28141,9.0544 -3.1866,9.0544 -1.31744,0 -2.6709,-0.67419 -3.00781,-1.49821 z m 35.0651,0.0723 c -0.77541,-1.89674 6.39671,-20.32154 8.8415,-22.71358 1.51076,-1.47812 2.29798,-1.66002 3.67444,-0.84897 1.88631,1.11154 9.02402,17.45835 9.52146,21.80615 0.38906,3.40112 -2.60704,4.16653 -5.37844,1.37402 -2.68967,-2.71003 -9.44154,-2.763 -10.96774,-0.086 -1.2682,2.22433 -4.85285,2.51938 -5.69122,0.46843 z m 12.6459,-10.34365 c -1.12513,-3.82515 -2.33894,-3.62632 -3.44066,0.56359 -0.56383,2.14407 -0.30664,2.58123 1.6943,2.87919 1.29746,0.19322 2.46032,0.31038 2.58403,0.26034 0.1236,-0.05 -0.25326,-1.71644 -0.83767,-3.70312 z m 20.92145,10.32258 c -0.3484,-0.85212 -0.63334,-6.15077 -0.63334,-11.7747 0,-8.17423 0.32055,-10.47508 1.59804,-11.47035 1.15963,-0.90348 2.05925,-0.97193 3.27922,-0.24953 1.42137,0.84164 1.68119,2.80901 1.68119,12.73176 v 11.73629 l -2.64588,0.28803 c -1.72407,0.18768 -2.86655,-0.25178 -3.27923,-1.26142 z m 25.38342,-8.26136 -0.28746,-9.70841 -3.69725,-0.28912 c -3.86263,-0.30207 -5.82936,-2.5129 -3.8708,-4.35141 1.30362,-1.22374 14.77074,-1.96875 19.74698,-1.09241 2.95817,0.52094 3.53057,0.99499 3.27075,2.70862 -0.24912,1.64369 -1.15711,2.17599 -4.35077,2.55074 l -4.03597,0.47358 -0.28756,9.70841 -0.28757,9.70841 h -2.95634 -2.95645 z m 28.07217,8.2102 c -0.3368,-0.82401 -0.61235,-5.85722 -0.61235,-11.18491 0,-10.25131 1.20988,-13.74745 4.36439,-12.61112 2.48091,0.89367 3.00357,4.52275 2.21504,15.38181 -0.69065,9.51183 -0.81335,9.91243 -3.03716,9.91243 -1.27456,0 -2.59301,-0.67419 -2.92992,-1.49821 z m 23.97174,-0.2632 c -4.45278,-2.62801 -6.95095,-8.97988 -5.5089,-14.00712 2.22867,-7.7693 10.62146,-11.63802 18.52369,-8.53859 4.90915,1.92549 7.79708,6.45795 7.80193,12.24472 0,3.79731 -0.52982,5.05953 -3.36146,7.96001 -2.92456,2.99571 -4.08067,3.49689 -8.82868,3.82746 -4.19559,0.29211 -6.19753,-0.0528 -8.62658,-1.48648 z m 12.67536,-6.4172 c 2.55568,-3.04991 2.6703,-6.12366 0.3255,-8.72498 -4.23766,-4.70111 -12.36015,-2.2398 -12.36015,3.74539 0,7.08486 7.62637,10.24042 12.03465,4.97959 z m 19.6919,4.9132 c -0.97883,-4.89787 -0.1115,-20.16339 1.21634,-21.40861 2.11878,-1.98701 5.01055,0.004 10.02342,6.90044 l 4.96081,6.82515 0.29634,-6.2837 c 0.33438,-7.09095 1.76907,-9.14439 5.18854,-7.42648 1.90821,0.95862 2.08256,1.90918 2.08256,11.35421 0,5.66939 -0.27565,10.98218 -0.61245,11.80619 -1.6374,4.00537 -8.88004,-0.5007 -14.07565,-8.75722 -1.04006,-1.65266 -2.13684,-3.00483 -2.43742,-3.00483 -0.30048,0 -0.38311,1.92794 -0.18343,4.28433 0.54233,6.40133 -0.41823,8.97593 -3.34895,8.97593 -2.00265,0 -2.57828,-0.60443 -3.11011,-3.26541 z m 39.37228,2.36417 c -3.48355,-1.32553 -4.80109,-3.4405 -3.53097,-5.66835 1.37728,-2.41572 1.526,-2.41482 5.74833,0.0348 3.9943,2.31734 8.41217,1.83911 8.41217,-0.91061 0,-1.2107 -1.28092,-2.08599 -4.28822,-2.93038 -6.88102,-1.93197 -9.83767,-4.37743 -9.83767,-8.13652 0,-4.03606 3.17146,-6.22299 9.90558,-6.83039 5.52009,-0.49792 10.11423,2.0093 8.94088,4.8795 -0.56605,1.38489 -1.54467,1.52269 -6.82795,0.96159 -5.69556,-0.6049 -6.13921,-0.51805 -5.80191,1.13565 0.25659,1.25786 1.84535,2.13431 5.33969,2.94572 6.14748,1.42746 8.95985,3.91979 8.95985,7.94023 0,4.51023 -4.11861,7.49744 -10.23027,7.41997 -2.60502,-0.0331 -5.66035,-0.41156 -6.78951,-0.8412 z m -398.26451,-9.59341 c -2.20082,-1.20327 -2.30404,-4.26338 -0.16982,-5.03218 0.87783,-0.31621 3.11093,-0.57492 4.96253,-0.57492 4.65478,0 6.55845,0.84452 6.55845,2.9095 0,3.23775 -7.22358,4.95442 -11.35116,2.6976 z m 437.90256,0.37013 c -1.05823,-0.25958 -1.76574,-1.33702 -1.76574,-2.68869 0,-1.82705 0.66957,-2.37347 3.52482,-2.87628 4.44693,-0.78313 8.48421,0.13809 9.29473,2.12084 1.24469,3.04494 -4.88967,4.95629 -11.05381,3.44413 z m 33.80739,-19.21363 c -6.43596,-1.43427 -6.48298,-1.58013 -5.93025,-18.41857 0.33347,-10.16204 1.04744,-16.91523 2.14542,-20.29556 1.89731,-5.84051 1.42339,-6.95767 -1.77482,-4.1844 -3.69694,3.2057 -9.62225,4.98819 -16.58167,4.98819 -9.18627,0 -14.86346,-3.20655 -16.03228,-9.05516 l -0.61337,-3.06923 -3.50332,3.64008 c -8.06235,8.37724 -20.23806,10.79347 -30.41062,6.0349 -4.33059,-2.02577 -6.34726,-3.81227 -9.8297,-8.70761 -0.10352,-0.14556 -1.6384,1.00704 -3.4109,2.56133 -1.77249,1.55429 -5.80775,4.01761 -8.96721,5.47404 -5.00783,2.30851 -6.90887,2.64639 -14.82532,2.63498 -10.18033,-0.0147 -13.543,-1.17265 -19.8379,-6.83142 l -3.69412,-3.32071 -5.8913,3.41199 c -9.49704,5.50016 -20.07995,7.53975 -36.06864,6.9513 -10.29697,-0.37898 -15.08908,-1.02871 -21.7341,-2.94682 -11.22292,-3.23953 -15.56975,-3.16677 -22.75408,0.38084 -5.06867,2.50286 -6.76428,2.84149 -14.2284,2.84149 -9.32672,0 -12.50989,-1.53128 -12.50989,-6.0178 0,-1.22605 2.06742,-12.56509 4.59424,-25.19789 2.52692,-12.63281 4.44492,-23.67048 4.26219,-24.52817 -0.44184,-2.07394 -6.98556,7.00036 -13.902,19.27813 -12.84891,22.80866 -19.75596,31.87146 -26.62074,34.9294 -2.32805,1.03705 -6.19561,1.53633 -11.90066,1.53633 -9.59138,0 -12.3882,-1.18273 -13.44139,-5.68415 -0.74534,-3.18533 -1.2908,-3.4595 -2.91548,-1.46541 -0.61609,0.7562 -3.77706,2.6742 -7.0244,4.26223 -4.87868,2.38584 -7.08716,2.88733 -12.71542,2.88733 -9.18092,0 -14.11055,-3.17193 -16.59913,-10.68058 -0.46585,-1.40556 -1.18405,-1.03025 -4.36278,2.27974 -4.88604,5.08784 -12.33009,8.38233 -18.93999,8.38233 -9.89912,0 -20.17006,-6.89777 -22.8906,-15.37287 -0.62709,-1.95352 -1.42591,-3.55186 -1.77512,-3.55186 -0.34921,0 -2.88814,2.15192 -5.64198,4.78202 -9.6943,9.25859 -21.43776,14.2359 -33.6739,14.27221 -10.83698,0.0322 -17.76038,-2.3357 -24.46059,-8.3657 l -3.68686,-3.31805 -3.69251,3.83671 c -8.07648,8.39186 -20.09034,10.18967 -29.04646,4.34663 -9.38796,-6.12472 -11.0075,-15.97748 -5.75065,-34.9832 1.69006,-6.1102 2.93869,-11.2211 2.77473,-11.35756 -0.16396,-0.13646 -1.76089,-0.54224 -3.54883,-0.90171 l -3.25067,-0.6536 -5.40648,10.72495 c -7.85773,15.58745 -12.01467,19.47779 -16.18756,15.14938 -2.84687,-2.95303 -2.04372,-9.20262 3.12121,-24.2851 2.37719,-6.94213 2.48767,-7.98799 1.37647,-13.03816 -1.5482,-7.03638 -0.6286,-11.46221 3.11133,-14.97292 2.2439,-2.10644 3.90369,-2.79395 6.69042,-2.7713 5.23092,0.0425 7.08444,1.77953 8.38483,7.85801 1.56696,7.32444 3.1875,8.4395 12.6689,8.71706 7.30914,0.21396 7.9554,0.40851 10.60501,3.19222 3.59333,3.77514 3.6354,7.11062 0.25911,20.52407 -3.12081,12.39863 -3.41998,19.6489 -0.91768,22.24447 2.4679,2.55983 4.59223,2.30897 9.14319,-1.07965 l 3.92246,-2.92071 0.63122,-10.10276 c 0.74655,-11.95013 2.93687,-18.1168 9.81083,-27.62201 4.8359,-6.68693 12.04485,-12.93983 18.28415,-15.85931 5.56691,-2.6048 21.35229,-2.33078 26.96209,0.46802 7.89899,3.94088 11.64013,11.25681 9.9868,19.52955 -0.36425,1.82288 -2.42925,5.79245 -4.5888,8.82124 -6.38147,8.95012 -17.73323,15.91004 -30.93902,18.9692 -7.02582,1.62755 -7.16889,2.16678 -1.88904,7.12307 7.99455,7.50465 23.65289,5.18661 37.85325,-5.60373 5.43968,-4.13338 5.9246,-4.83217 7.03721,-10.14098 1.82598,-8.71286 4.6231,-14.86772 10.05794,-22.13248 9.56817,-12.78962 23.6317,-20.00652 36.96422,-18.96863 4.67698,0.36408 6.23345,0.93411 8.09363,2.96422 2.80429,3.06038 3.17984,3.10036 3.591,0.38235 0.29725,-1.96495 0.91304,-2.15236 7.89728,-2.40361 9.58018,-0.34463 11.50161,0.74198 11.26661,6.37155 -0.0918,2.19753 -1.98489,13.34771 -4.20689,24.77819 -2.2221,11.43047 -4.0401,22.022 -4.0401,23.53672 0,3.08245 2.27315,5.73082 4.91883,5.73082 3.04595,0 12.36005,-4.89941 13.28772,-6.98962 0.75382,-1.6984 4.27066,-19.16743 9.08053,-45.10428 0.62789,-3.38611 1.56444,-6.63614 2.08114,-7.22231 2.81822,-3.19673 16.27202,-2.34343 18.73719,1.18838 1.42036,2.03479 1.31966,3.60368 -1.16176,18.10154 -1.49421,8.73052 -3.58696,20.06067 -4.65044,25.17811 -1.06348,5.11745 -1.93353,9.99092 -1.93353,10.82993 0,0.83901 3.56991,-5.05287 7.9331,-13.09309 12.03233,-22.17215 18.03856,-30.94817 25.74302,-37.61472 5.53583,-4.79007 8.50378,-5.992 14.91109,-6.03859 6.43444,-0.0468 10.42954,2.36012 13.49153,8.12804 3.0406,5.72794 3.11506,9.31494 0.48563,23.39684 -4.2979,23.01719 -5.3076,29.31547 -4.77899,29.81166 0.30169,0.28322 2.06409,-0.22071 3.9163,-1.11985 5.92904,-2.87812 15.99858,-2.32224 26.36385,1.45539 8.11634,2.95799 8.99497,3.10193 10.47183,1.71553 2.09002,-1.96191 1.97722,-9.16082 -0.20553,-13.12324 -0.89811,-1.63031 -3.5898,-5.45948 -5.98151,-8.50926 -9.2346,-11.7756 -8.47089,-24.25096 2.10213,-34.33939 5.54078,-5.2868 10.82477,-7.49706 19.1426,-8.00714 13.54108,-0.83037 21.67456,5.13665 22.44301,16.4649 0.39644,5.84397 0.30058,6.12989 -3.13816,9.35791 -3.86253,3.62577 -6.34838,4.07575 -10.73972,1.94405 -3.06431,-1.48753 -4.10811,-3.17321 -4.10811,-6.63437 0,-2.49711 2.31584,-7.08373 4.09893,-8.11825 2.08559,-1.20998 -0.0363,-2.80491 -3.73165,-2.80491 -7.1583,0 -12.06785,8.26745 -9.56555,16.10775 0.63405,1.98655 2.72629,5.6749 4.64933,8.19631 7.68025,10.06963 10.38374,18.77186 8.2581,26.58163 l -0.83121,3.05402 4.36268,-1.26877 c 5.48206,-1.59429 9.41602,-3.25005 14.05647,-5.91625 l 3.63974,-2.09125 0.2025,-7.88404 c 0.48674,-18.95789 11.66708,-36.49173 28.0852,-44.04518 9.6844,-4.45546 22.65843,-3.4638 25.2255,1.92809 1.11635,2.34456 -0.72122,8.24712 -3.70653,11.90598 -1.81679,2.22674 -1.97066,2.25117 -4.47579,0.71037 -10.55456,-6.49185 -23.85408,8.63357 -23.85408,27.12901 0,7.69896 2.222,12.26639 7.09321,14.58019 4.21184,2.00063 12.11891,1.47904 17.78914,-1.17344 l 5.09884,-2.38514 0.55555,-6.8957 c 1.13118,-14.03999 7.94319,-27.59364 18.94958,-37.70345 8.18928,-7.52208 15.407,-10.65014 24.73614,-10.72028 6.02006,-0.0453 7.85753,0.31588 10.33551,2.03138 2.93627,2.03273 3.02708,2.03883 3.52906,0.23679 0.45687,-1.63986 1.41289,-1.84622 8.42942,-1.81952 9.31269,0.0354 11.46053,1.11903 11.4121,5.75726 -0.0182,1.76587 -2.0201,13.4082 -4.44814,25.87186 -4.60585,23.6424 -4.65831,25.95464 -0.63456,27.97612 2.6473,1.32997 7.63142,-0.58571 11.30849,-4.34653 2.71499,-2.77674 4.18106,-8.87784 9.41652,-39.18708 0.85491,-4.94892 1.78662,-10.31808 2.07045,-11.93145 0.79054,-4.49248 7.51689,-6.52125 13.97706,-4.21564 3.98784,1.42328 4.71734,3.67396 3.5237,10.87113 -0.58087,3.50247 -0.82162,6.58822 -0.53507,6.85722 0.28656,0.26901 1.29212,-0.93573 2.23452,-2.67719 5.07301,-9.3739 13.60535,-15.17976 22.45552,-15.27991 8.11744,-0.0919 15.73059,5.24055 19.99116,14.00217 9.09536,18.70431 -2.97259,49.42305 -23.0362,58.6377 -10.45517,4.8018 -19.64598,4.25969 -25.11492,-1.48139 l -2.62641,-2.75699 -2.64557,15.89909 c -1.45507,8.7445 -2.94323,19.16714 -3.30697,23.16143 -0.57614,6.32564 -0.93726,7.33185 -2.80006,7.80116 -2.77715,0.69968 -7.35969,0.55635 -11.46558,-0.35863 z m 37.88109,-55.34827 c 4.2629,-2.09056 7.91464,-6.21825 10.96835,-12.39767 2.49211,-5.04307 2.81096,-6.78442 2.83174,-15.46502 l 0.0232,-9.78206 -3.27075,-2.74741 c -2.85373,-2.39707 -3.62571,-2.62182 -6.05395,-1.76259 -6.97769,2.46905 -13.9588,12.03311 -17.4147,23.85778 -2.89288,9.89854 -2.87805,14.38833 0.0575,17.32132 2.6925,2.69037 8.46857,3.12863 12.8587,0.97565 z M 304.73066,205.563 c 1.83819,-1.31608 4.25291,-3.78723 5.36603,-5.49143 2.166,-3.31599 8.59005,-29.78034 8.06669,-33.23157 -0.22713,-1.49813 -1.3352,-2.30738 -4.00833,-2.92743 -11.12938,-2.58149 -23.66883,7.99065 -27.70985,23.36228 -4.32575,16.45493 6.17615,26.95838 18.28546,18.28815 z m 303.86665,0.31632 c 6.53181,-3.78951 8.00897,-6.76618 11.52652,-23.22701 1.79439,-8.39733 2.99499,-15.92258 2.66788,-16.72281 -0.85916,-2.10173 -5.95285,-2.86411 -10.85575,-1.62481 -5.947,1.50323 -13.36541,8.32056 -17.37928,15.97106 -2.69149,5.13007 -3.33139,7.57887 -3.61512,13.83331 -0.30431,6.70905 -0.0807,7.91429 1.90508,10.28337 4.08339,4.87062 9.10171,5.34437 15.75067,1.48689 z M 219.43078,185.23556 c 7.79133,-2.77905 15.1483,-8.32529 17.41005,-13.12499 1.80832,-3.83751 1.83354,-4.31438 0.34094,-6.45277 -4.52614,-6.48446 -17.76058,1.06825 -21.9487,12.5258 -3.69544,10.10967 -3.8144,9.90977 4.19771,7.05196 z M 46.397107,244.43303 C 29.367136,241.37849 21.619389,234.2686 26.22009,225.91709 c 2.492513,-4.52469 6.120647,-5.02046 17.419946,-2.38033 11.482431,2.6829 18.969555,2.91596 26.47353,0.82409 12.73338,-3.54969 23.067073,-13.95883 28.497569,-28.70577 1.939485,-5.2667 2.296265,-8.13701 2.249645,-18.0989 -0.0505,-10.8442 -0.30128,-12.3969 -2.981164,-18.46965 -5.943266,-13.46748 -22.255036,-24.99227 -40.343237,-28.50375 -13.908048,-2.7 -29.849315,0.0585 -34.854219,6.03119 -3.330481,3.97462 -2.587257,7.9172 2.559611,13.57736 3.592618,3.95096 4.540465,5.71994 4.540465,8.47406 0,10.35074 -13.135766,12.50324 -21.7404497,3.56251 -8.7689484,-9.11131 -10.4379222,-20.36469 -4.6555904,-31.39052 3.7471948,-7.14512 7.8135331,-10.69191 17.4969311,-15.26131 17.407233,-8.2141 43.648493,-6.51352 66.695991,4.3223 10.735273,5.04722 22.673262,16.07873 28.262782,26.11687 13.44623,24.14772 9.37616,57.70391 -9.50975,78.40557 -15.048214,16.49492 -37.58708,24.0206 -59.935043,20.01222 z M 759.09403,225.82226 c -7.36141,-1.14249 -16.4719,-6.18213 -20.50928,-11.34512 -11.32079,-14.47695 -6.42809,-39.03069 11.05865,-55.49676 8.21602,-7.73653 13.19732,-10.04114 22.87678,-10.58404 16.19392,-0.9083 26.11403,5.74491 26.11403,17.51428 0,13.0077 -15.78155,27.12749 -35.71974,31.95854 -3.27498,0.79352 -6.20681,1.67963 -6.51516,1.96913 -1.21261,1.13833 2.96967,5.77529 7.10078,7.87268 6.3286,3.21308 14.7442,2.48293 24.4164,-2.11841 8.52941,-4.05768 10.01727,-4.18585 11.56537,-0.99638 1.43459,2.95568 -0.0646,6.13241 -5.06312,10.72909 -8.62456,7.9311 -23.45745,12.3388 -35.32471,10.49699 z m 2.97582,-41.10415 c 6.08311,-1.87743 15.40004,-9.2745 17.40521,-13.81867 1.96491,-4.45297 0.0858,-7.55068 -4.58072,-7.55068 -4.67587,0 -8.46262,1.895 -12.57729,6.29418 -5.48216,5.86125 -10.47314,18.41714 -6.81726,17.15058 0.69369,-0.24033 3.65013,-1.17426 6.57006,-2.07541 z M 34.496247,218.2431 c -1.447803,-1.06903 -2.900651,-3.33448 -3.245726,-5.06095 -0.36465,-1.82471 1.293629,-15.70358 3.984308,-33.34641 3.726409,-24.43351 4.442794,-31.19988 3.741242,-35.33335 -1.078916,-6.35678 -0.262843,-9.37901 3.184984,-11.7954 2.390605,-1.67552 3.131811,-1.7559 6.766099,-0.73375 2.244806,0.63134 5.636129,2.60731 7.536364,4.39106 5.986148,5.61936 5.953759,7.32698 -0.961469,50.6635 -1.371624,8.5955 -2.947064,18.98851 -3.501101,23.09557 -0.553937,4.10706 -1.521964,8.04963 -2.151071,8.76125 -1.878137,2.12428 -12.19155,1.69336 -15.35363,-0.64152 z M 312.75568,115.65391 c -7.54292,-1.7774 -17.36889,-6.36231 -30.9696,-14.45077 -16.82807,-10.007768 -21.68677,-11.919282 -31.67327,-12.460974 -10.72286,-0.581633 -16.24417,1.15138 -26.57342,8.340769 -9.74182,6.780515 -14.34312,9.034855 -22.39105,10.970295 -5.20034,1.25064 -7.2155,1.3098 -12.35864,0.36283 -10.54528,-1.94161 -13.01327,-4.2011 -10.73436,-9.827687 0.94805,-2.340692 1.07387,-2.364381 9.83767,-1.852213 11.07813,0.647433 15.77832,-0.914513 27.68069,-9.198812 10.95846,-7.627305 14.42677,-9.193418 25.28665,-11.418396 5.01258,-1.02696 10.53671,-2.557934 12.27581,-3.402168 1.73909,-0.844224 8.44062,-6.33835 14.89232,-12.209172 12.59171,-11.458186 16.89032,-13.659769 26.67038,-13.659769 9.09173,0 15.44888,3.433594 28.63822,15.467977 4.8807,4.453318 10.58695,9.18818 12.68061,10.521908 5.11115,3.255944 11.86403,3.230371 21.76245,-0.0824 14.39549,-4.817843 26.24106,-3.243186 47.98171,6.378264 21.11255,9.343468 26.63527,11.591869 35.96381,14.641389 30.10065,9.840019 64.04143,9.975969 99.73281,0.399494 12.68162,-3.402641 13.44522,-3.424994 16.57693,-0.485155 2.75778,2.588806 3.13141,4.996928 1.1666,7.5193 -1.4918,1.91515 -17.16235,6.08426 -35.01364,9.31526 -15.95489,2.88776 -52.38737,3.10262 -65.58449,0.3868 -16.11764,-3.3168 -29.89441,-8.14917 -51.22713,-17.968491 -13.98897,-6.439033 -24.93865,-10.128077 -31.86357,-10.735113 -5.26441,-0.461467 -7.79951,-0.07236 -16.30914,2.503168 -17.72033,5.363267 -24.61679,3.396513 -42.20987,-12.037536 -11.28175,-9.897264 -16.3816,-13.211687 -20.92418,-13.598763 -7.47542,-0.636976 -8.15266,-0.268303 -18.76665,10.217073 l -10.27628,10.151775 7.85016,3.937418 c 4.31758,2.165582 11.76273,6.356119 16.54465,9.312316 15.41659,9.530433 26.18637,12.832283 41.9557,12.862923 6.86519,0.0134 8.7186,0.32974 9.80559,1.67398 1.97319,2.4401 1.68946,5.38378 -0.71628,7.43049 -1.7838,1.51762 -3.90823,1.83532 -13.36915,1.99932 -6.46491,0.11206 -13.41445,-0.31546 -16.34204,-1.00532 z m 309.06467,-8.13264 c -10.59068,-3.1781 -15.70466,-7.18767 -37.2199,-29.182076 -6.66944,-6.817946 -11.29779,-9.698199 -15.59236,-9.703086 -1.70903,-0.0019 -9.2008,2.011914 -16.64837,4.475255 -12.46852,4.124047 -14.30226,4.480397 -23.15233,4.499018 -10.89237,0.02292 -14.02085,-0.943676 -25.70337,-7.941516 -8.96863,-5.37217 -17.11382,-8.562391 -21.93478,-8.591109 -6.07111,-0.03618 -13.52312,3.230713 -21.50233,9.426449 -4.09439,3.179224 -8.80921,6.227059 -10.47747,6.772984 -4.01872,1.315077 -10.15642,-0.465502 -10.15642,-2.946422 0,-1.870114 11.88976,-12.681702 19.00144,-17.278411 7.1243,-4.604807 14.72735,-6.753264 23.88073,-6.748073 9.4372,0.0057 14.46027,1.649454 26.45244,8.658139 16.16839,9.449483 19.64548,9.709546 40.64553,3.040011 24.96035,-7.927338 29.23464,-7.011972 45.67798,9.782373 23.1144,23.607758 29.22747,27.173453 43.47414,25.358009 5.86487,-0.747358 5.9249,-0.730622 7.81585,2.180433 3.32736,5.122142 2.63196,6.922052 -3.31484,8.579842 -6.8231,1.90206 -14.06918,1.77183 -21.24594,-0.38182 z M 155.0478,103.96505 c -6.04871,-2.79758 -8.79831,-8.430004 -8.37464,-17.154753 0.22965,-4.73096 7.39137,-11.495969 12.90481,-12.190172 9.90457,-1.247071 16.66139,4.315611 17.31309,14.253328 0.32137,4.899706 0.0101,6.320055 -2.00184,9.098593 -5.1064,7.056474 -12.62925,9.328714 -19.84142,5.993004 z m 11.46457,-9.771342 c 2.13634,-2.215885 2.4128,-6.814053 0.53739,-8.935345 -0.71538,-0.80916 -2.76393,-1.471208 -4.55227,-1.471208 -6.66762,0 -9.61055,8.178118 -4.16996,11.588237 2.11737,1.32721 6.35614,0.715259 8.18484,-1.181684 z m 493.83009,8.817702 c -11.49555,-9.08016 -5.45169,-26.801549 9.14076,-26.801549 15.41568,0 20.69735,19.351667 7.50892,27.512619 -4.63299,2.86691 -12.54783,2.52889 -16.64968,-0.71107 z m 13.17673,-7.858307 c 2.41341,-2.265579 2.63599,-6.861824 0.43235,-8.930387 -2.1317,-2.00106 -7.44243,-1.902545 -9.11776,0.169135 -3.09478,3.827092 -0.40198,10.655575 4.20215,10.655575 1.35589,0 3.37337,-0.852445 4.48326,-1.894323 z M 402.60481,67.602082 c -3.32967,-1.528767 -8.37766,-3.474142 -11.21767,-4.323055 -3.6022,-1.076772 -5.67639,-2.358386 -6.85953,-4.238455 -4.17127,-6.628807 -16.70538,-9.966065 -25.84412,-6.881178 -5.69788,1.923354 -12.60938,6.938898 -13.60021,9.86936 -0.34729,1.027406 -1.07296,1.868002 -1.61247,1.868002 -0.5395,0 -4.02779,-2.669812 -7.75168,-5.932908 -3.72399,-3.263096 -8.09292,-6.895073 -9.70892,-8.07106 l -2.93809,-2.138151 4.72017,-6.484933 c 20.39808,-28.024181 56.8344,-44.3566039 90.98213,-40.78224228 11.07368,1.15912718 23.6767,4.32794248 32.41911,8.15122758 12.9598,5.6677317 28.61653,17.3488887 37.06079,27.6503167 l 4.38498,5.349447 -9.70257,0.0066 c -5.33636,0.0038 -11.9727,0.606117 -14.74743,1.338643 -10.58463,2.794326 -36.96644,14.296896 -47.82895,20.853596 -6.09532,3.679174 -11.22171,6.656739 -11.39203,6.616797 -0.17031,-0.03997 -3.03383,-1.323422 -6.36351,-2.852189 z M 352.83325,48.505376 c 0.48835,-2.545649 -0.0515,-5.458086 -1.00435,-5.416061 -0.37545,0.01658 -1.59078,0.680526 -2.70067,1.475451 -1.89065,1.354082 -1.90659,1.504633 -0.25225,2.384849 0.97116,0.516734 1.76574,1.557674 1.76574,2.313197 0,2.190094 1.74152,1.588182 2.19153,-0.757436 z m 76.56313,-0.23679 c -0.0787,-1.405863 -2.33642,-1.147582 -2.86019,0.327244 -0.28292,0.796677 0.17839,1.151739 1.23046,0.947162 0.92565,-0.17998 1.65899,-0.753467 1.62973,-1.274406 z M 411.53106,45.91594 c 1.03826,-4.873214 6.50841,-9.429783 14.31891,-11.92743 4.65882,-1.489838 6.10289,-2.254586 4.28771,-2.270801 -1.50531,-0.01345 -5.2855,-0.919581 -8.40046,-2.013619 -6.14739,-2.159074 -8.68016,-4.94123 -10.69219,-11.744684 l -1.12038,-3.788647 -1.24106,4.526268 c -1.95321,7.123017 -7.17606,11.358365 -15.55836,12.616604 -4.93437,0.740699 -5.50758,2.265279 -0.86259,2.294745 7.57229,0.04802 15.12802,5.63011 16.53042,12.212592 0.78843,3.700249 1.96128,3.740939 2.738,0.09497 z M 375.86652,30.746091 c 0,-0.520939 -0.68107,-0.947162 -1.51349,-0.947162 -0.83241,0 -1.51348,0.426223 -1.51348,0.947162 0,0.520939 0.68107,0.947162 1.51348,0.947162 0.83242,0 1.51349,-0.426223 1.51349,-0.947162 z m 76.77946,-2.856801 c 0.42509,-0.268899 0.0101,-1.424607 -0.92283,-2.568258 -1.64405,-2.015958 -1.76755,-2.02794 -4.05241,-0.392996 l -2.3566,1.686346 2.35236,2.479205 c 2.10173,2.214976 2.45125,2.308963 3.27943,0.881903 0.50984,-0.878521 1.27486,-1.81731 1.70005,-2.0862 z"
       id="path1" />
  </g>
</svg>
